<?xml version="1.0" standalone="no"?><!DOCTYPE svg PUBLIC "-//W3C//DTD SVG 1.1//EN" "http://www.w3.org/Graphics/SVG/1.1/DTD/svg11.dtd"><svg t="1787820907399" class="icon" viewBox="0 0 1266 1024" version="1.1" xmlns="http://www.w3.org/2000/svg" p-id="41566" xmlns:xlink="http://www.w3.org/1999/xlink" width="247.265625" height="200"><path d="M502.159542 1003.315246a508.635007 508.635007 0 0 1-73.124677-5.301963 500.971902 500.971902 0 1 1 556.677863-622.846364s10.999806 42.698477 0 55.40905-53.104464-41.48256-53.104464-41.48256A446.100117 446.100117 0 1 0 767.865662 859.780497s86.740119-22.72068 75.76859-1.28661-42.924694 45.24342-42.924695 45.24342a497.23932 497.23932 0 0 1-298.550015 99.577939z" fill="#ffffff" p-id="41567"></path><path d="M878.81101 887.053796c-140.226324 0-254.324573-114.08411-254.324572-254.324573s114.098249-254.324573 254.324572-254.324572 254.338711 114.08411 254.338712 254.324572-114.098249 254.324573-254.338712 254.324573z m0-456.477827c-111.468475 0-202.181531 90.684779-202.181531 202.181532s90.684779 202.181531 202.181531 202.181531 202.181531-90.698918 202.181532-202.181531-90.698918-202.181531-202.181532-202.181532zM1195.076652 1023.943417a71.442187 71.442187 0 0 1-49.48499-19.793996c-0.820037-0.777621-1.696628-1.654213-2.544942-2.544942l-152.696542-152.696541 18.38014-18.450832L1163.604198 985.260294a45.653438 45.653438 0 1 0 62.930769-66.097809L1073.315299 765.985233l18.450832-18.380139 152.979313 152.936896a71.696682 71.696682 0 0 1-49.668792 123.457982z" fill="#ffffff" p-id="41568"></path><path d="M977.20131 581.618298a111.312951 111.312951 0 0 0-32.985281-38.372075 110.83224 110.83224 0 0 0-154.902158 24.134536l-21.066467-15.382762a136.946176 136.946176 0 0 1 232.084604 17.57424zM481.022382 26.255322h52.171318v952.10535h-52.171318z" fill="#ffffff" p-id="41569"></path><path d="M507.150457 1005.294645l-6.489603-1.654212c-11.989506-3.068069-293.530823-79.882913-293.530824-520.893146C207.13003 66.606797 498.865256 1.329025 501.806078 0.706928l3.435672-0.706928 3.506365 0.226217c2.728744 0.169663 272.52091 21.53304 297.475484 394.027769l-50.022256 36.321983c-12.724712-335.324432-218.964012-374.276189-247.424951-377.923939-31.882472 8.285201-249.545736 77.762127-249.545736 430.095257 0 364.223667 207.752127 454.314626 247.679445 468.241116 23.625548-8.483141 107.608646-45.04548 170.836325-151.989612l27.768149-8.29934 17.150083 34.851571c-85.495925 144.623419-204.061961 176.732108-209.067014 178.061134z" fill="#ffffff" p-id="41570"></path><path d="M128.873053 182.769277h730.384317v26.085659H128.873053zM128.873053 782.725298h560.820463v26.085659H128.873053zM663.621996 508.832946H24.530417v-26.085659h665.163099l-26.07152 26.085659z" fill="#ffffff" p-id="41571"></path></svg>