<?xml version="1.0" standalone="no"?><!DOCTYPE svg PUBLIC "-//W3C//DTD SVG 1.1//EN" "http://www.w3.org/Graphics/SVG/1.1/DTD/svg11.dtd"><svg t="1787820826423" class="icon" viewBox="0 0 1024 1024" version="1.1" xmlns="http://www.w3.org/2000/svg" p-id="33396" xmlns:xlink="http://www.w3.org/1999/xlink" width="200" height="200"><path d="M716.422737 700.631579h-78.416842a161.684211 161.684211 0 0 1-134.521263-72.003368 26.947368 26.947368 0 1 1 44.840421-29.911579 107.789474 107.789474 0 0 0 89.680842 48.02021h78.416842l-61.817263-61.763368a26.947368 26.947368 0 0 1 38.157473-38.157474l107.789474 107.789474a26.947368 26.947368 0 0 1 0 38.157473l-107.789474 107.789474a26.947368 26.947368 0 0 1-38.157473-38.157474L716.422737 700.631579z m0-377.263158l-61.817263-61.763368a26.947368 26.947368 0 0 1 38.157473-38.157474l107.789474 107.789474a26.947368 26.947368 0 0 1 0 38.157473l-107.789474 107.789474a26.947368 26.947368 0 0 1-38.157473-38.157474L716.422737 377.263158h-78.416842a107.789474 107.789474 0 0 0-89.680842 47.966316l-135.599158 203.398737A161.684211 161.684211 0 0 1 278.204632 700.631579H242.526316a26.947368 26.947368 0 1 1 0-53.894737h35.678316a107.789474 107.789474 0 0 0 89.680842-47.966316l135.599158-203.398737A161.684211 161.684211 0 0 1 638.005895 323.368421h78.416842zM512 1024a512 512 0 1 1 0-1024 512 512 0 0 1 0 1024z m0-53.894737a458.105263 458.105263 0 1 0 0-916.210526 458.105263 458.105263 0 0 0 0 916.210526z m-269.473684-592.842105a26.947368 26.947368 0 0 1 0-53.894737h35.678316a161.684211 161.684211 0 0 1 134.521263 72.003368 26.947368 26.947368 0 1 1-44.840421 29.911579A107.789474 107.789474 0 0 0 278.204632 377.263158H242.526316z" fill="#ffffff" p-id="33397"></path></svg>